<svg xmlns="http://www.w3.org/2000/svg" xmlns:xlink="http://www.w3.org/1999/xlink" xmlns:svgjs="http://svgjs.com/svgjs" version="1.1" width="512" height="512" x="0" y="0" viewBox="0 0 512 512" style="enable-background:new 0 0 512 512" xml:space="preserve"><g><g xmlns="http://www.w3.org/2000/svg"><path d="m136 288a32 32 0 1 0 -32-32 32.036 32.036 0 0 0 32 32zm0-48a16 16 0 1 1 -16 16 16.019 16.019 0 0 1 16-16z" fill="#000000" data-original="#000000"/><path d="m496 48h-368a8 8 0 0 0 -8 8v104h-104a8 8 0 0 0 -8 8v288a8 8 0 0 0 8 8h368a8 8 0 0 0 8-8v-104h104a8 8 0 0 0 8-8v-288a8 8 0 0 0 -8-8zm-120 400h-352v-272h352zm112-112h-96v-168a8 8 0 0 0 -8-8h-248v-96h352z" fill="#000000" data-original="#000000"/><path d="m320 200h-240a8 8 0 0 0 -8 8v160a8 8 0 0 0 8 8h240a8 8 0 0 0 8-8v-160a8 8 0 0 0 -8-8zm-214.61 160 30.61-35.71 30.61 35.71zm82.29 0-18.71-21.83 53.03-61.88 71.75 83.71zm124.32-3.29-83.93-97.92a8 8 0 0 0 -12.14 0l-57.5 67.09-16.36-19.09a8 8 0 0 0 -12.14 0l-41.93 48.92v-139.71h224z" fill="#000000" data-original="#000000"/><path d="m120 384h-40a8 8 0 0 0 -8 8v24a8 8 0 0 0 8 8h40a8 8 0 0 0 8-8v-24a8 8 0 0 0 -8-8zm-8 24h-24v-8h24z" fill="#000000" data-original="#000000"/><path d="m272 384h-128a8 8 0 0 0 0 16h128a8 8 0 0 0 0-16z" fill="#000000" data-original="#000000"/><path d="m208 408h-64a8 8 0 0 0 0 16h64a8 8 0 0 0 0-16z" fill="#000000" data-original="#000000"/></g></g></svg>